<?xml version="1.0" encoding="utf-8"?>
<!-- Generator: Adobe Illustrator 25.0.0, SVG Export Plug-In . SVG Version: 6.00 Build 0)  -->
<svg version="1.1" id="圖層_1" xmlns="http://www.w3.org/2000/svg" xmlns:xlink="http://www.w3.org/1999/xlink" x="0px" y="0px"
	 viewBox="0 0 512 512" style="enable-background:new 0 0 512 512;" xml:space="preserve">
<style type="text/css">
	.st0{fill:url(#SVGID_1_);}
</style>
<linearGradient id="SVGID_1_" gradientUnits="userSpaceOnUse" x1="20.8" y1="270.8081" x2="502.7" y2="270.8081" gradientTransform="matrix(1 0 0 -1 0 512)">
	<stop  offset="7.614213e-03" style="stop-color:#A6C0FE"/>
	<stop  offset="0.3063" style="stop-color:#C2AAD3"/>
	<stop  offset="0.7419" style="stop-color:#E78C9A"/>
	<stop  offset="0.9518" style="stop-color:#F68084"/>
</linearGradient>
<path class="st0" d="M164,46.9c9.2,8.2,10,22.3,1.6,31.4l-67.7,74.1c-4.2,4.4-10,7.1-16.2,6.5c-6.2,1-12.2-1.4-16.6-6.5l-37.7-37
	c-8.8-7.9-8.8-21.9,0-30.6s23.1-8.7,32,0l20.8,20.4L132,48.5C140.3,39.4,154.6,38.7,164,46.9L164,46.9z M164,195.1
	c9.2,8.1,10,22.2,1.6,31.4l-67.7,74.1c-4.2,4.4-10,7.1-16.2,6.5c-6.2,1-12.2-1.4-16.6-6.5l-37.7-37c-8.8-7.9-8.8-21.9,0-30.6
	c8.8-8.6,23.1-8.6,32,0l20.8,20.5l51.9-56.7C140.3,187.6,154.6,186.8,164,195.1L164,195.1z M231.6,100.4c0-16.4,13.5-29.6,30.1-29.6
	h210.9c16.7,0,30.1,13.3,30.1,29.6c0,16.4-13.5,29.6-30.1,29.6H261.8C245.1,130.1,231.6,116.8,231.6,100.4L231.6,100.4z
	 M231.6,248.6c0-16.4,13.5-29.6,30.1-29.6h210.9c16.7,0,30.1,13.2,30.1,29.6s-13.5,29.6-30.1,29.6H261.8
	C245.1,278.2,231.6,265,231.6,248.6z M171.4,396.7c0-16.4,13.5-29.6,30.1-29.6h271.1c16.7,0,30.1,13.2,30.1,29.6
	s-13.5,29.6-30.1,29.6H201.5C184.9,426.4,171.4,413.1,171.4,396.7z M20.8,396.7c0-24.5,20.2-44.4,45.2-44.4
	c59.9,2.4,59.9,86.5,0,88.9C41,441.2,20.8,421.3,20.8,396.7z"/>
</svg>
